<svg width="16" height="16" viewBox="0 0 16 16" fill="none" xmlns="http://www.w3.org/2000/svg">
<path d="M1.02679 9.05367H12.4961L7.48532 14.1956C7.08487 14.6065 7.08487 15.2809 7.48532 15.6918C7.88577 16.1027 8.53265 16.1027 8.9331 15.6918L15.6997 8.7481C16.1001 8.33717 16.1001 7.67335 15.6997 7.26242L8.94337 0.308184C8.75153 0.110881 8.49108 0 8.21948 0C7.94787 0 7.68743 0.110881 7.49559 0.308184C7.09514 0.719116 7.09514 1.38293 7.49559 1.79386L12.4961 6.94632H1.02679C0.462057 6.94632 0 7.42047 0 7.99999C0 8.57951 0.462057 9.05367 1.02679 9.05367Z" fill="white" fill-opacity="0.2"/>
</svg>
