<?xml version="1.0" encoding="UTF-8"?>
<svg width="366px" height="138px" viewBox="0 0 366 138" version="1.1" xmlns="http://www.w3.org/2000/svg" xmlns:xlink="http://www.w3.org/1999/xlink">
    <title>Dext</title>
    <g id="Dext" stroke="none" stroke-width="1" fill="none" fill-rule="evenodd">
        <g id="DEXTools" transform="translate(11.24, 15.14)" fill="#FFFFFF">
            <path d="M248.6,41.88 C241.52,42.76 236.3,46.78 234.38,52.78 C233.06,56.86 233.22,60.74 234.88,64.68 C236.84,69.34 241.06,72.66 246.66,73.92 C248.28,74.3 252.46,74.32 254.14,74 C260.64,72.72 265.18,68.68 267.06,62.56 C267.5,61.1 267.56,60.66 267.56,58.06 C267.56,55.46 267.5,55.02 267.06,53.56 C265.2,47.52 260.82,43.54 254.56,42.22 C253.26,41.96 249.7,41.76 248.6,41.88 Z M252.56,49.82 C254.9,50.44 257.12,51.96 258.14,53.74 C259.72,56.42 259.66,59.96 258.02,62.52 C255.08,67.14 248.36,67.9 244.32,64.06 C240.96,60.86 240.84,55.78 244.04,52.32 C246.18,50.04 249.58,49.06 252.56,49.82 Z" id="Shape" fill-rule="nonzero"></path>
            <path d="M283.2,41.88 C276.12,42.76 270.9,46.78 268.98,52.78 C267.66,56.86 267.82,60.74 269.48,64.68 C271.44,69.34 275.66,72.66 281.26,73.92 C282.88,74.3 287.06,74.32 288.74,74 C295.24,72.72 299.78,68.68 301.66,62.56 C302.1,61.1 302.16,60.66 302.16,58.06 C302.16,55.46 302.1,55.02 301.66,53.56 C299.8,47.52 295.42,43.54 289.16,42.22 C287.86,41.96 284.3,41.76 283.2,41.88 Z M287.18,49.82 C289.54,50.44 291.74,51.96 292.76,53.74 C294.34,56.42 294.28,59.96 292.64,62.52 C289.7,67.14 282.98,67.9 278.94,64.06 C275.58,60.86 275.46,55.78 278.66,52.32 C280.78,50.04 284.18,49.06 287.18,49.82 Z" id="Shape" fill-rule="nonzero"></path>
            <path d="M329.8,41.98 C325.68,42.58 322.58,45.22 321.58,49.02 C320.62,52.6 321.3,56.26 323.22,58.04 C324.36,59.1 325.72,59.72 329.46,60.92 C333.08,62.08 333.9,62.58 334.28,63.8 C334.7,65.2 333.66,66.88 332.08,67.32 C331.22,67.56 329.6,67.56 328.52,67.3 C327.34,67.02 325.22,65.98 324.32,65.2 C323.92,64.82 323.46,64.54 323.38,64.54 C323.3,64.54 322.84,65.22 322.4,66.06 C321.78,67.24 321.58,67.5 321.54,67.18 L321.48,66.78 L316.66,66.78 L311.86,66.78 L311.86,54.66 L311.86,42.54 L307.88,42.54 L303.9,42.54 L303.9,58.08 L303.9,73.62 L312.68,73.62 L321.46,73.62 L321.46,72.76 C321.46,72.3 321.5,71.92 321.54,71.92 C321.58,71.92 322.3,72.26 323.14,72.64 C325.74,73.86 327.4,74.22 330.62,74.22 C333.76,74.22 335.24,73.94 337.18,73 C338.72,72.26 340.8,70.2 341.5,68.76 C342.88,65.88 343.08,62 341.92,59.54 C341.72,59.08 341.04,58.18 340.4,57.56 C339.04,56.2 337.58,55.46 333.84,54.26 C332.36,53.8 330.88,53.24 330.54,53.04 C329.34,52.3 329.1,50.68 330.04,49.66 C331.68,47.9 334.6,48.06 337.64,50.08 L338.24,50.46 L339.86,47.36 C340.72,45.68 341.44,44.26 341.4,44.24 C341.22,44.06 338.96,43.16 337.68,42.76 C334.98,41.92 332.14,41.62 329.8,41.98 Z" id="Path" fill-rule="nonzero"></path>
            <path d="M106.2,53.66 L106.2,74.14 L113.44,74.14 C117.42,74.14 121.58,74.02 122.66,73.9 C131.6,72.8 138.2,67.38 140.32,59.42 C141.02,56.78 141.18,52.14 140.68,49.38 C139.66,44.02 136.88,39.7 132.6,36.78 C130.68,35.46 128.96,34.74 126.2,33.98 C124.04,33.4 123.7,33.4 115.1,33.28 L106.22,33.18 L106.22,53.66 L106.2,53.66 Z M122,41.54 C127.62,42.74 131.36,47.44 131.36,53.32 C131.34,57.22 130.14,60.58 127.9,62.8 C125.68,65.04 122.38,66.12 117.78,66.14 L115.6,66.14 L115.6,53.68 L115.6,41.22 L118.02,41.22 C119.34,41.22 121.12,41.38 122,41.54 Z" id="Shape" fill-rule="nonzero"></path>
            <path d="M144.06,53.68 L144.06,74.14 L161.3,74.12 L178.52,74.12 L182.96,67.88 C185.42,64.48 187.48,61.68 187.54,61.68 C187.64,61.68 189.7,64.48 192.14,67.92 L196.6,74.16 L202.2,74.16 C205.26,74.16 207.78,74.08 207.78,74.02 C207.78,73.94 204.48,69.34 200.5,63.8 L193.22,53.72 L200.18,44 C204.02,38.68 207.36,34.1 207.58,33.84 C208.02,33.4 208.02,33.46 208.02,37.56 L208.02,41.72 L212.26,41.72 L216.5,41.72 L216.5,57.94 L216.5,74.16 L221.56,74.16 L226.62,74.16 L226.62,57.94 L226.62,41.72 L231.56,41.68 L236.48,41.6 L233.84,37.44 L231.2,33.28 L213.92,33.26 L196.62,33.26 L192.18,39.5 C189.72,42.9 187.66,45.7 187.6,45.74 C187.52,45.74 185.46,42.94 183.02,39.5 L178.56,33.26 L161.34,33.26 L144.1,33.26 L144.1,53.68 L144.06,53.68 Z M174.48,43.44 C178.44,48.92 181.68,53.52 181.68,53.66 C181.68,53.8 178.44,58.44 174.46,63.96 L167.22,74 L167.14,70.08 L167.1,66.16 L160.28,66.16 L153.46,66.16 L153.46,61.56 L153.46,56.98 L158.98,56.98 L164.5,56.98 L164.5,53.1 L164.5,49.22 L158.98,49.22 L153.46,49.22 L153.46,45.22 L153.46,41.22 L160.28,41.22 L167.1,41.22 L167.1,37.34 C167.1,35.2 167.14,33.46 167.2,33.46 C167.26,33.46 170.52,37.96 174.48,43.44 Z" id="Shape" fill-rule="nonzero"></path>
            <path d="M34.8,6.06 C28.4,9.4 23.14,12.22 23.1599432,12.34 C23.1599432,12.64 38.54,20.42 39.08,20.4 C39.32,20.4 41.12,19.56 43.08,18.56 L46.64,16.74 L50.52,18.74 L54.4,20.74 L60.76,17.88 C70.32,13.58 71.32,13.1 71.16,12.96 C70.96,12.74 67.52,10.9 58.2,6 C53.7,3.64 49.34,1.3 48.5,0.84 C47.66,0.36 46.86,0 46.72,0 C46.58,0 41.2,2.72 34.8,6.06 Z M6.7,20.62 L0.02,24.06 L0.02,39.18 C0.02,47.5 0.1,54.3 0.22,54.3 C0.32,54.3 3.6,52.88 7.52,51.14 L14.62,47.98 L14.62,32.04 L18.08,33.92 C20.76,35.38 23.42,36.82 26.1,38.28 L30.66,40.74 L32.68,39.82 C33.96,39.24 35.22,38.66 36.48,38.08 C37.46,37.62 39.86,36.54 41.82,35.68 C43.78,34.82 45.58,33.94 45.84,33.74 C46.18,33.48 42.02,31.18 30.46,25.24 C21.74,20.76 14.32,17.12 13.98,17.139918 C13.64,17.16 10.36,18.72 6.7,20.62 Z M72.34,21.58 C67.8,23.64 64.08,25.4 64.08,25.5 C64.08,25.6 66.56,27.08 69.58,28.78 C72.62,30.48 75.08,31.96 75.08,32.08 C75.08,32.2 72.4,33.5 69.12,34.96 C65.84,36.44 57.56,40.18 50.7,43.28 L27.76,53.66 C21.98,56.26 16.78,58.62 16.2,58.88 C4.42,64.22 1.16,65.7 0.72,65.96 C0.28,66.22 0.18,67.7 0.1,75.16 L0,84.06 L5.96,87.1 L11.92,90.14 L20.2,86.4 C24.74,84.34 28.48,82.56 28.48,82.42 C28.48,82.28 27.64,81.74 26.62,81.2 C25.6,80.66 23.48,79.46 21.9,78.54 C20.34,77.62 18.78,76.78 18.44,76.66 C18.1,76.54 17.82,76.36 17.82,76.22 C17.82,76.1 21.46,74.36 25.92,72.38 C34.56,68.52 41.16,65.54 55.34,59.12 C61.68,56.26 68.02,53.38 74.38,50.52 C79.96,48 86.44,45.06 88.78,43.98 L93.04,42.02 L93.14,33.02 L93.24,24.02 L87.2,20.94 C83.88,19.24 81.02,17.84 80.88,17.84 C80.72,17.84 76.88,19.54 72.34,21.58 Z M91.44,54.06 C90.54,54.5 88.78,55.32 87.52,55.88 C86.26,56.44 83.86,57.52 82.2,58.28 L79.18,59.66 L79.12,67.56 C79.08,71.9 78.92,75.44 78.76,75.42 C78.4,75.36 72.74,72.46 67.04,69.4 C62.92,67.2 62.66,67.1 61.7,67.58 C61.14,67.86 57.8,69.36 54.28,70.9 C50.76,72.46 47.76,73.82 47.62,73.96 C47.48,74.08 54.56,77.92 63.38,82.5 L79.38,90.82 L86.22,87.28 C89.98,85.34 93.18,83.56 93.32,83.34 C93.66,82.84 93.62,53.2 93.3,53.2399596 C93.16,53.26 92.32,53.62 91.44,54.06 Z M53.56,88.84 C52.38,89.34 51.18,89.86 50,90.38 C46.42,91.92 47.12,91.98 42.86,89.86 C40.02,88.44 38.8,88.02 38.26,88.22 C37.86,88.38 34.44,89.92 30.64,91.64 C26.86,93.36 23.62,94.78 23.46,94.78 C21.86,94.78 24.52,96.36 34.72,101.5 L46.68,107.54 L51.72,105.06 C54.48,103.7 60.08,100.96 64.12,98.98 C68.18,97 71.44,95.34 71.38,95.26 C71.32,95.2 67.92,93.46 63.82,91.38 L56.38,87.62 L53.56,88.84 Z" id="Shape"></path>
        </g>
    </g>
</svg>